HIERARCHY
ROOT Hips
{
    OFFSET 0.0 0.0 0.0
    CHANNELS 6 Xposition Yposition Zposition Zrotation Xrotation Yrotation
    JOINT LeftUpLeg
    {
        OFFSET 15.35438673252656 0.0 0.0
        CHANNELS 3 Zrotation Xrotation Yrotation
        JOINT LeftLeg
        {
            OFFSET 0.0 0.0 -59.016302784133856
            CHANNELS 3 Zrotation Xrotation Yrotation
            JOINT LeftFoot
            {
                OFFSET 0.0 0.0 -42.841757130995674
                CHANNELS 3 Zrotation Xrotation Yrotation
                JOINT LeftToeBase
                {
                    OFFSET 0.0 -12.703000700852712 0.0
                    CHANNELS 3 Zrotation Xrotation Yrotation
                    End Site
                    {
                        OFFSET 0 0 0
                    }
                }
            }
        }
    }
    JOINT RightUpLeg
    {
        OFFSET -15.35438673252656 0.0 0.0
        CHANNELS 3 Zrotation Xrotation Yrotation
        JOINT RightLeg
        {
            OFFSET 0.0 0.0 -59.016302784133856
            CHANNELS 3 Zrotation Xrotation Yrotation
            JOINT RightFoot
            {
                OFFSET 0.0 0.0 -42.841757130995674
                CHANNELS 3 Zrotation Xrotation Yrotation
                JOINT RightToeBase
                {
                    OFFSET 0.0 -12.703000700852712 0.0
                    CHANNELS 3 Zrotation Xrotation Yrotation
                    End Site
                    {
                        OFFSET 0 0 0
                    }
                }
            }
        }
    }
    JOINT Spine
    {
        OFFSET 0.0 0.0 12.353279566353022
        CHANNELS 3 Zrotation Xrotation Yrotation
        JOINT Spine1
        {
            OFFSET 0.0 0.0 11.812038433279332
            CHANNELS 3 Zrotation Xrotation Yrotation
            JOINT Spine2
            {
                OFFSET 0.0 0.0 11.812038433279332
                CHANNELS 3 Zrotation Xrotation Yrotation
                JOINT Spine3
                {
                    OFFSET 0.0 0.0 11.812038433279326
                    CHANNELS 3 Zrotation Xrotation Yrotation
                    JOINT Spine4
                    {
                        OFFSET 0.0 0.0 11.812038433279335
                        CHANNELS 3 Zrotation Xrotation Yrotation
                        JOINT RightShoulder
                        {
                            OFFSET -25.94802301204627 0.0 0.0
                            CHANNELS 3 Zrotation Xrotation Yrotation
                            JOINT RightArm
                            {
                                OFFSET -32.69160493541504 0.0 0.0
                                CHANNELS 3 Zrotation Xrotation Yrotation
                                JOINT RightForeArm
                                {
                                    OFFSET -32.678264260856224 0.0 0.0
                                    CHANNELS 3 Zrotation Xrotation Yrotation
                                    JOINT RightHand
                                    {
                                        OFFSET -10.53238112925683 0.0 0.0
                                        CHANNELS 3 Zrotation Xrotation Yrotation
                                        End Site
                                        {
                                            OFFSET 0 0 0
                                        }
                                    }
                                }
                            }
                        }
                        JOINT LeftShoulder
                        {
                            OFFSET 25.94802301204627 0.0 0.0
                            CHANNELS 3 Zrotation Xrotation Yrotation
                            JOINT LeftArm
                            {
                                OFFSET 32.69160493541504 0.0 0.0
                                CHANNELS 3 Zrotation Xrotation Yrotation
                                JOINT LeftForeArm
                                {
                                    OFFSET 32.678264260856224 0.0 0.0
                                    CHANNELS 3 Zrotation Xrotation Yrotation
                                    JOINT LeftHand
                                    {
                                        OFFSET 10.53238112925683 0.0 0.0
                                        CHANNELS 3 Zrotation Xrotation Yrotation
                                        End Site
                                        {
                                            OFFSET 0 0 0
                                        }
                                    }
                                }
                            }
                        }
                        JOINT Neck
                        {
                            OFFSET 0.0 0.0 11.81203850526305
                            CHANNELS 3 Zrotation Xrotation Yrotation
                            JOINT Head
                            {
                                OFFSET 0.0 0.0 26.777465936470378
                                CHANNELS 3 Zrotation Xrotation Yrotation
                                End Site
                                {
                                    OFFSET 0 0 0
                                }
                            }
                        }
                    }
                }
            }
        }
    }
}
MOTION
Frames: 7
Frame Time: 0.03333333333333333
33.46988933086395 -2.445457448065281 553.9775310516358 8.930601979306116 -49.37439510117668 7.857641663640525 21.021364909456143 -46.46332865157939 -10.582178962798102 -8.320944543918918 2.9785355579195536 21.612068554330044 -85.81866719863535 -1.5902773407317584e-14 55.90242010942666 0.0 0.0 0.0 -14.269794578896533 -41.94683824349751 13.39896502931309 23.328046519335025 9.183998410172897 -71.88548946200905 117.31915247074966 -3.1805546814635168e-15 -59.197964352088455 0.0 0.0 0.0 -1.437324515571866 -41.178184275001755 0.9878594913460907 3.975693351829396e-16 0.0 0.0 3.975693351829396e-16 0.0 0.0 3.975693351829396e-16 0.0 0.0 3.975693351829396e-16 0.0 0.0 138.33976482338005 13.11206642197349 -151.2648007479389 121.68586832982673 -7.747917151917629e-16 1.3887691739504729e-15 3.6988046463275425e-15 15.105313569201485 -3.6988046463275425e-15 0.0 0.0 0.0 -137.9939570309808 6.482599686797758 153.89512678118456 -103.97867840263513 -5.9911994540586295e-15 2.66424913423096e-15 -180.0 -11.247447617216956 -180.0 0.0 0.0 7.951386703658792e-16 -1.549056818619054 -3.2769602305616724e-15 -2.431037109850788e-16 1.987846675914698e-16 0.0 0.0
33.46988933086395 -2.445457448065281 553.9775310516358 8.930601979306116 -49.37439510117668 7.857641663640525 21.021364909456143 -46.46332865157939 -10.582178962798102 -8.320944543918918 2.9785355579195536 21.612068554330044 -85.81866719863535 -1.5902773407317584e-14 55.90242010942666 0.0 0.0 0.0 -14.269794578896533 -41.94683824349751 13.39896502931309 23.328046519335025 9.183998410172897 -71.88548946200905 117.31915247074966 -3.1805546814635168e-15 -59.197964352088455 0.0 0.0 0.0 -1.437324515571866 -41.178184275001755 0.9878594913460907 3.975693351829396e-16 0.0 0.0 3.975693351829396e-16 0.0 0.0 3.975693351829396e-16 0.0 0.0 3.975693351829396e-16 0.0 0.0 138.33976482338005 13.11206642197349 -151.2648007479389 121.68586832982673 -7.747917151917629e-16 1.3887691739504729e-15 3.6988046463275425e-15 15.105313569201485 -3.6988046463275425e-15 0.0 0.0 0.0 -137.9939570309808 6.482599686797758 153.89512678118456 -103.97867840263513 -5.9911994540586295e-15 2.66424913423096e-15 -180.0 -11.247447617216956 -180.0 0.0 0.0 7.951386703658792e-16 -1.549056818619054 -3.2769602305616724e-15 -2.431037109850788e-16 1.987846675914698e-16 0.0 0.0
33.46988933086395 -2.445457448065281 553.9775310516358 8.930601979306116 -49.37439510117668 7.857641663640525 21.021364909456143 -46.46332865157939 -10.582178962798102 -8.320944543918918 2.9785355579195536 21.612068554330044 -85.81866719863535 -1.5902773407317584e-14 55.90242010942666 0.0 0.0 0.0 -14.269794578896533 -41.94683824349751 13.39896502931309 23.328046519335025 9.183998410172897 -71.88548946200905 117.31915247074966 -3.1805546814635168e-15 -59.197964352088455 0.0 0.0 0.0 -1.437324515571866 -41.178184275001755 0.9878594913460907 3.975693351829396e-16 0.0 0.0 3.975693351829396e-16 0.0 0.0 3.975693351829396e-16 0.0 0.0 3.975693351829396e-16 0.0 0.0 138.33976482338005 13.11206642197349 -151.2648007479389 121.68586832982673 -7.747917151917629e-16 1.3887691739504729e-15 3.6988046463275425e-15 15.105313569201485 -3.6988046463275425e-15 0.0 0.0 0.0 -137.9939570309808 6.482599686797758 153.89512678118456 -103.97867840263513 -5.9911994540586295e-15 2.66424913423096e-15 -180.0 -11.247447617216956 -180.0 0.0 0.0 7.951386703658792e-16 -1.549056818619054 -3.2769602305616724e-15 -2.431037109850788e-16 1.987846675914698e-16 0.0 0.0
33.59591463804245 -2.6922156885266304 554.0921384811402 14.348517535182063 -49.005231697770704 12.07992233846902 29.990950254924627 -47.60551569160905 -0.9028300511114723 -12.428336541693177 4.844911788277423 20.31709708805512 -62.090341671129764 -6.3611093629270335e-15 42.26985599663507 0.0 0.0 0.0 -3.1110178071977694 -36.73976995675225 22.89482604003696 11.700701124252639 4.650348724341456 -72.11942187121429 114.1366982085257 3.1805546814635168e-15 -59.92153190066445 0.0 0.0 0.0 1.1199521300217616 -40.81545123653044 4.784574494971457 -7.951386703658791e-16 0.0 0.0 -7.951386703658791e-16 0.0 0.0 -7.951386703658791e-16 0.0 0.0 -7.951386703658791e-16 0.0 0.0 133.13657201128743 12.938180972263376 -151.47391731245128 121.33867525096166 -1.3817808130971233e-14 -1.3795135064894613e-15 -1.8546960414081655e-15 8.90334064464746 3.334572639744185e-15 -7.951386703658792e-16 0.0 0.0 -143.271072610318 5.098914000568589 153.8793317613131 -108.11549037082156 1.416233493709447e-15 -8.883789019643108e-15 180.0 -27.032388767329277 -180.0 -1.5902773407317584e-15 -1.6552148617688095e-32 1.1927080055488188e-15 -5.804881473639904 1.2383287968741145e-14 6.278391758167086e-16 0.0 0.0 0.0
33.63613268136978 -2.771819517016411 554.134799194336 16.699040033582442 -48.77470048623734 13.866523981914167 32.41680343942916 -47.497780384994535 2.4496657606885828 -13.134259820150728 5.339080699205285 19.06836709950332 -18.106552395089402 -5.565970692561154e-15 39.75362169489561 0.0 0.0 0.0 1.6011061563195939 -33.666692114634856 26.482681613819633 6.28848618834104 2.5302519847595475 -72.16449070590652 112.61819045200119 0.0 -60.105913141882 0.0 0.0 0.0 2.1701346483487107 -40.5336539666267 6.4375556392310065 0.0 0.0 0.0 0.0 0.0 0.0 0.0 0.0 0.0 0.0 0.0 0.0 123.09875328928972 9.014085585350303 -148.16881142597657 113.97053305958157 -1.3267378422250003e-14 -2.9312722994104034e-15 -9.244783907530686e-16 4.577773592473807 3.2200455665179356e-15 0.0 0.0 0.0 -145.44881225627063 4.621643515938968 153.88497675063587 -110.2694734720656 3.401121905673149e-15 -6.245959509286602e-15 180.0 -47.35081972900956 180.0 0.0 0.0 -1.5157330903849571e-15 -7.654743056628379 -1.5336545792440341e-15 -8.995171800026371e-16 0.0 0.0 0.0
33.681441092491156 -2.842564541101456 554.1808891296387 18.138391001738995 -48.656044669800636 14.947499354200275 32.80541681736198 -47.21174194544098 3.806095069246865 -12.740375164759433 5.377714364825109 17.86672189088382 9.500867993701846 1.0734372049939369e-14 49.002009123588046 0.0 0.0 -3.1805546814635168e-15 4.206188519198337 -31.60004483515781 28.393185415356594 2.868148295826762 1.1636079947419362 -72.24701746867285 111.67904682975075 0.0 -60.40661102012826 0.0 0.0 0.0 2.7237212936625927 -40.31199141718124 7.3760495199922955 0.0 0.0 0.0 0.0 0.0 0.0 0.0 0.0 0.0 0.0 0.0 0.0 117.41130509518044 7.258722739061076 -146.8465047895151 110.90655303174297 2.5339825388717113e-15 7.536808542335084e-15 4.673110228435663e-15 -3.7966686256974724 -3.02741416622704e-15 -7.951386703658792e-16 0.0 0.0 -146.80426764896353 4.0354763953181205 153.8712084168573 -112.5570783232112 8.828520187585851e-16 1.3227071986720135e-15 180.0 -66.72372025352018 180.0 -5.466578358765419e-16 -1.292058996914585e-32 2.708441095933776e-15 -8.685703599142741 1.502723015724598e-14 -1.6497926948050333e-15 -3.975693351829397e-16 0.0 0.0
33.73180825710297 -2.9018650129437447 554.2336812973023 19.191116589125283 -48.59057643539209 15.723399552499533 32.820793062136254 -46.93390273031351 4.601285828493282 -12.270202383722888 5.333467118311455 16.933948592681325 11.94453930658545 -2.3059021440610497e-14 51.899113771630965 0.0 0.0 -7.951386703658792e-16 5.950482001961815 -30.01779240616228 29.648044370439766 0.3529122713983335 0.14394991817350516 -72.3673448081293 111.03104399263003 0.0 -60.72051480095799 0.0 0.0 0.0 3.0971360824469407 -40.1255241576257 8.033992828443939 -7.951386703658792e-16 0.0 0.0 -7.951386703658792e-16 0.0 0.0 -7.951386703658792e-16 0.0 0.0 -7.951386703658792e-16 0.0 0.0 108.66477623104174 3.126556895478126 -144.91736563322985 104.14881770785118 -7.95003702300312e-15 -1.4649861433303336e-16 1.4903945302103122e-15 -10.076076009090865 3.3242797518303834e-15 0.0 0.0 0.0 -147.78098681769666 3.4926330870900344 153.84797889518958 -114.57480109942247 9.844946371369603e-15 -8.213456171050851e-15 179.99999999999991 -85.65330800929804 179.99999999999991 0.0 0.0 7.951386703658792e-16 -9.393725988822556 -5.694472361386739e-15 7.288698020422567e-16 0.0 0.0 0.0
